<?xml version="1.0" standalone="no"?>
<!DOCTYPE svg PUBLIC "-//W3C//DTD SVG 20010904//EN"
 "http://www.w3.org/TR/2001/REC-SVG-20010904/DTD/svg10.dtd">
<svg version="1.0" xmlns="http://www.w3.org/2000/svg"
 width="512.000000pt" height="512.000000pt" viewBox="0 0 512.000000 512.000000"
 preserveAspectRatio="xMidYMid meet">
<metadata>
Created by potrace 1.14, written by Peter Selinger 2001-2017
</metadata>
<g transform="translate(0.000000,512.000000) scale(0.100000,-0.100000)"
fill="#000000" stroke="none">
<path d="M310 4714 c-143 -39 -257 -154 -294 -299 -14 -52 -16 -231 -16 -1510
0 -1178 3 -1459 14 -1500 38 -143 135 -247 281 -301 47 -18 104 -19 922 -24
l872 -5 -157 -255 -158 -255 -254 -3 c-245 -2 -255 -3 -277 -24 -29 -27 -31
-86 -4 -119 l19 -24 1335 -3 1335 -2 31 26 c37 31 42 79 12 115 l-19 24 -303
5 -304 5 -157 255 -157 255 872 5 c814 5 875 6 922 23 150 55 253 170 284 317
9 41 11 423 9 1520 l-3 1465 -21 52 c-46 111 -136 201 -247 247 l-52 21 -2215
2 c-1926 2 -2222 0 -2270 -13z m1925 -179 c-553 -88 -998 -365 -1185 -739
-145 -289 -126 -595 46 -769 55 -56 150 -112 238 -142 63 -22 221 -51 319 -60
l77 -7 0 -389 0 -389 -775 0 -775 0 0 1165 0 1165 21 46 c24 51 80 102 130
120 26 10 267 12 1009 12 825 0 963 -2 895 -13z m2570 -9 c28 -13 63 -38 78
-56 60 -71 57 3 57 -1266 l0 -1164 -775 0 -775 0 0 389 0 389 78 7 c415 36
638 187 689 468 50 281 -88 612 -352 840 -236 204 -557 344 -920 402 -68 11
68 13 895 14 l975 1 50 -24z m-1981 -162 c27 -6 28 -9 22 -47 -15 -95 -96
-191 -184 -221 -53 -19 -153 -20 -199 -3 -59 22 -121 75 -152 128 -28 49 -49
124 -38 135 21 21 469 27 551 8z m-838 -513 c55 -25 121 -91 147 -150 45 -100
19 -238 -61 -319 -182 -181 -493 -52 -493 205 0 210 214 349 407 264z m1377 4
c68 -28 114 -72 147 -138 124 -252 -134 -511 -386 -387 -155 76 -208 270 -112
414 36 55 105 105 168 123 50 14 134 9 183 -12z m-153 -1425 l0 -390 -650 0
-650 0 0 390 0 390 650 0 650 0 0 -390z m1735 -775 l0 -210 -30 -54 c-32 -59
-75 -96 -132 -117 -56 -20 -4390 -20 -4446 0 -57 21 -100 58 -132 117 -30 54
-30 54 -33 252 -2 108 -2 203 1 210 4 12 409 14 2389 13 l2383 -1 0 -210z
m-1967 -824 c83 -137 152 -251 152 -255 0 -3 -256 -6 -570 -6 -313 0 -570 3
-570 6 0 4 69 118 153 255 l152 248 265 0 265 0 153 -248z"/>
<path d="M2134 2640 c-48 -20 -54 -44 -54 -213 l0 -159 30 -30 c27 -26 36 -30
67 -25 20 4 46 16 57 27 20 19 21 32 21 190 0 156 -2 171 -20 189 -24 24 -71
34 -101 21z"/>
<path d="M2910 2638 c-45 -24 -51 -50 -48 -220 3 -178 9 -193 81 -205 31 -5
40 -1 67 25 l30 30 0 161 c0 152 -1 161 -22 185 -28 31 -74 41 -108 24z"/>
<path d="M2480 1764 c-87 -37 -149 -142 -136 -226 19 -116 103 -190 216 -190
198 0 291 236 146 370 -65 60 -152 78 -226 46z m115 -198 c0 -52 -63 -62 -73
-12 -7 33 6 47 40 44 29 -3 33 -7 33 -32z"/>
</g>
</svg>
